<?xml version="1.0" encoding="utf-8"?>
<!-- Generator: Adobe Illustrator 16.0.4, SVG Export Plug-In . SVG Version: 6.00 Build 0)  -->
<!DOCTYPE svg PUBLIC "-//W3C//DTD SVG 1.1//EN" "http://www.w3.org/Graphics/SVG/1.1/DTD/svg11.dtd">
<svg version="1.1" id="main" xmlns="http://www.w3.org/2000/svg" xmlns:xlink="http://www.w3.org/1999/xlink" x="0px" y="0px"
	 width="238.709px" height="100.645px" viewBox="0 0 238.709 100.645" enable-background="new 0 0 238.709 100.645"
	 xml:space="preserve">
<path id="S" fill="#6DFF5C" stroke="#000000" d="M53.104,24.667c-1.83-1.309-6.012-3.137-11.588-3.137
	c-10.106,0-13.679,6.359-13.679,11.501c0,7.145,4.182,10.716,13.33,14.55c10.717,4.442,16.38,9.671,16.38,19.43
	c0,10.021-7.319,18.122-21.085,18.122c-5.75,0-12.285-1.829-15.596-4.269l1.83-4.531c3.659,2.526,8.8,4.27,14.202,4.27
	c9.497,0,15.16-5.313,15.16-13.068c0-7.231-3.659-11.589-12.808-15.247c-10.194-3.659-16.816-9.322-16.816-18.472
	C22.434,24.057,30.45,17,41.864,17c6.099,0,10.804,1.567,13.069,3.05L53.104,24.667z"/>
<path id="H" fill="#FF6E5C" stroke="#000000" d="M115.138,84.175h-5.402V51.502h-34.59v32.673h-5.402v-66.13h5.402v28.839h34.59
	V18.045h5.402V84.175z"/>
<path id="K" fill="#8BC3FF" stroke="#000000" d="M172.815,84.175h-6.448L142.669,49.76l-6.622,7.405v27.01h-5.313v-66.13h5.313
	v33.107h0.349c1.83-2.525,3.748-4.966,5.489-7.058l22.218-26.051h6.621L146.328,46.1L172.815,84.175z"/>
<path id="Z" fill="#F0FF5C" stroke="#000000" d="M224.386,21.531l-38.162,57.766v0.349h38.598v4.53h-45.479v-3.398l38.162-57.938
	v-0.262h-35.024v-4.53h41.908v3.484H224.386z"/>
</svg>
